<svg xmlns="http://www.w3.org/2000/svg" version="1.1" xmlns:xlink="http://www.w3.org/1999/xlink"
    xmlns:svgjs="http://svgjs.dev/svgjs" width="1000" height="1000">
    <g clip-path="url(#SvgjsClipPath1258)">
        <rect width="1000" height="1000" fill="#fadb92"></rect>
        <g transform="matrix(3.90625,0,0,3.90625,0,0)"><svg xmlns="http://www.w3.org/2000/svg" version="1.1"
                xmlns:xlink="http://www.w3.org/1999/xlink" xmlns:svgjs="http://svgjs.dev/svgjs" width="256"
                height="256"><svg height="256" preserveAspectRatio="xMidYMid" viewBox="0 0 256 256" width="256"
                    xmlns="http://www.w3.org/2000/svg" xmlns:xlink="http://www.w3.org/1999/xlink">
                    <linearGradient id="a" x1="50%" x2="50%" y1="0%" y2="100%">
                        <stop offset="0" stop-color="#e7507e"></stop>
                        <stop offset="1" stop-color="#fbb583"></stop>
                    </linearGradient>
                    <path
                        d="m0 128c0 .046.002.091.002.136l1.997 1.333h77.501l2.299-1.333c.221-26.01 21.366-47.028 47.428-47.028s47.206 21.018 47.427 47.028l3.013 1.5h74.665l1.666-1.5c0-.045.002-.09.002-.136 0-70.693-57.308-128-128-128s-128 57.307-128 128z"
                        fill="url(#a)"></path>
                    <path d="m.002 128.136c.074 70.63 57.351 127.864 127.998 127.864s127.924-57.234 127.998-127.864z"
                        fill="#62b3c5"></path>
                    <path
                        d="m215.923 163.987c-16.153 3.476-82.471 5.452-82.675 12.745.204 8.52 40.008 8.792 39.327 18.062-1.26 16.906-63.717 26.911-124.144 33.467 21.847 17.362 49.494 27.739 79.569 27.739 66.386 0 120.962-50.541 127.365-115.243-10.915 10.833-21.176 19.141-39.442 23.23z"
                        fill="#a8dce3"></path>
                </svg></svg></g>
    </g>
    <defs>
        <clipPath id="SvgjsClipPath1258">
            <rect width="1000" height="1000" x="0" y="0" rx="500" ry="500"></rect>
        </clipPath>
    </defs>
</svg>