<svg xmlns="http://www.w3.org/2000/svg" role="img" viewBox="-0.06 -0.06 263.38 159.38"><title>cncf-stacked-color-bg.svg</title><style>svg {enable-background:new 0 0 263.1 159.1}</style><path d="M12.9 151.5c.7 0 1.3-.1 2-.4.6-.3 1.1-.7 1.5-1.2l1.9 1.9c-.6.7-1.4 1.4-2.3 1.8-.9.4-1.9.6-2.9.6-.9 0-1.8-.1-2.6-.4-.8-.3-1.6-.8-2.3-1.4-.6-.6-1.1-1.3-1.5-2.1-.3-.8-.5-1.6-.5-2.5 0-.9.1-1.7.5-2.5.3-.8.8-1.5 1.5-2.1.6-.6 1.4-1.1 2.2-1.4.8-.3 1.7-.5 2.6-.5 1 0 2 .2 2.9.6.9.4 1.7 1 2.4 1.8l-1.8 2c-.4-.5-.9-1-1.5-1.2-.6-.3-1.3-.4-1.9-.4-1 0-2 .4-2.8 1.1-.4.4-.7.8-.9 1.3-.2.5-.3 1-.3 1.5s.1 1 .2 1.5c.2.5.5.9.8 1.3.3.4.7.6 1.2.8.6-.1 1.1-.1 1.6-.1zm18.1.8c-1.3 1.2-3 1.9-4.8 1.9-.9 0-1.8-.1-2.6-.5-.8-.3-1.6-.8-2.2-1.4-1.2-1.2-1.9-2.9-1.9-4.6s.7-3.4 1.9-4.6c1.3-1.2 3-1.9 4.8-1.9.9 0 1.8.1 2.6.5.8.3 1.6.8 2.2 1.4 1.2 1.2 1.9 2.9 1.9 4.6s-.7 3.3-1.9 4.6zm-.9-4.6c0-1.1-.4-2.1-1.1-2.9-.3-.4-.8-.7-1.2-.9-.5-.2-1-.3-1.5-.3s-1 .1-1.5.3c-.5.2-.9.5-1.2.9-.4.4-.7.8-.8 1.3s-.3 1-.2 1.5c0 1.1.4 2.1 1.1 2.9.3.4.8.7 1.2.9.5.2 1 .3 1.5.3s1-.1 1.5-.3c.5-.2.9-.5 1.2-.9.6-.8 1-1.8 1-2.8zm16.9-1.6l-3.5 6.9h-1.7l-3.5-6.9v7.9h-2.9v-12.7h3.9l3.3 6.9 3.3-6.9h3.9V154H47v-7.9zm14.9-3.5c.5.4.9 1 1.1 1.6.2.6.3 1.3.3 1.9 0 1.6-.5 2.7-1.4 3.4-.9.8-2.3 1.1-4.3 1.1H56v3.5h-2.9v-12.6h4.6c1.9 0 3.3.3 4.2 1.1zm-2.1 4.9c.4-.5.6-1.1.5-1.7 0-.3 0-.6-.1-.9-.1-.3-.3-.5-.6-.7-.6-.3-1.4-.5-2.1-.5H56v4.2h1.9c.3 0 .7 0 1-.1.4.1.7-.1.9-.3zm9.2 3.3c.2.3.5.5.9.7.3.2.7.2 1.1.2s.7-.1 1.1-.2c.3-.2.6-.4.9-.7.5-.7.8-1.6.7-2.4v-7h2.9v7c0 .8-.1 1.5-.3 2.3-.3.7-.7 1.4-1.2 2-1.1.9-2.5 1.4-4 1.4s-2.9-.6-3.9-1.5c-.5-.6-.9-1.2-1.2-2-.3-.7-.4-1.5-.3-2.3v-7h2.9v7c-.4.9-.1 1.7.4 2.5zm15.9-6.9V154H82v-10.1h-3.6v-2.4h10.2v2.4h-3.7zm5.8-2.4h2.9v12.6h-2.9v-12.6zm15 0h2.9v12.6h-2.9l-6.1-7.9v7.9h-2.9v-12.6h2.7l6.4 8.1-.1-8.1zm14.5 6.2h2.9v4.5c-.7.7-1.5 1.3-2.4 1.6-.9.4-1.9.5-2.9.5-1.8 0-3.5-.6-4.8-1.8-.6-.6-1.1-1.3-1.5-2.1s-.5-1.6-.5-2.5c0-.9.1-1.7.5-2.5.3-.8.8-1.5 1.4-2.1.6-.6 1.4-1.1 2.2-1.4.8-.3 1.7-.5 2.6-.5 1.8 0 3.5.6 4.8 1.8l-1.5 2.1c-.4-.5-1-.8-1.6-1-.5-.2-1-.3-1.6-.3-1 0-2 .4-2.8 1.1-.4.4-.7.8-.9 1.3-.2.5-.3 1-.3 1.6 0 1.1.4 2.1 1.1 2.9.3.3.7.6 1.2.8.4.2.9.3 1.4.3.9 0 1.7-.1 2.5-.5v-3.6c0-.2.2-.2.2-.2zm19.2-6.2v2.5h-6v2.7h5.7v2.5h-5.7v4.9h-2.9v-12.6h8.9zm13.3 10.8c-1.3 1.2-3 1.9-4.8 1.9-.9 0-1.8-.1-2.6-.5-.8-.3-1.6-.8-2.2-1.4-1.2-1.2-1.9-2.9-1.9-4.6s.7-3.4 1.9-4.6c1.3-1.2 3-1.9 4.8-1.9.9 0 1.8.1 2.6.5.8.3 1.6.8 2.2 1.4 1.2 1.2 1.9 2.9 1.9 4.6s-.6 3.3-1.9 4.6zm-1-4.6c0-1.1-.4-2.1-1.1-2.9-.3-.4-.8-.7-1.2-.9-.5-.2-1-.3-1.5-.3s-1 .1-1.5.3c-.5.2-.9.5-1.2.9-.4.4-.7.8-.8 1.3-.2.5-.3 1-.2 1.5 0 1.1.4 2.1 1.1 2.9.3.4.8.7 1.2.9.5.2 1 .3 1.5.3s1-.1 1.5-.3c.5-.2.9-.5 1.2-.9.4-.4.7-.8.8-1.3.2-.5.3-1 .2-1.5zm8.9 3.1c.2.3.5.5.9.7.3.2.7.2 1.1.2s.7-.1 1.1-.2c.3-.2.6-.4.9-.7.5-.7.8-1.6.7-2.4v-7h2.9v7c0 .8-.1 1.5-.3 2.3-.3.7-.7 1.4-1.2 2-1.1.9-2.5 1.4-4 1.4s-2.9-.6-3.9-1.5c-.5-.6-.9-1.2-1.2-2-.3-.7-.4-1.5-.3-2.3v-7h2.9v7c-.5.9-.2 1.8.4 2.5zm19.4-9.3h2.9v12.6H180l-6.1-7.9v7.9H171v-12.6h2.7l6.4 8.1-.1-8.1zm15.9 1.6c.6.6 1.1 1.3 1.4 2.1.3.8.5 1.6.4 2.5 0 .8-.1 1.7-.4 2.5-.3.8-.8 1.5-1.4 2.1-1.2 1.1-3 1.7-5.5 1.7H186v-12.6h4.6c2.4.1 4.2.6 5.3 1.7zm-2.1 7.5c.4-.4.7-.8.8-1.3.2-.5.3-1 .2-1.5 0-.5-.1-1.1-.2-1.5-.2-.5-.5-.9-.8-1.3-.4-.4-1-.6-1.5-.8-.6-.2-1.1-.2-1.7-.2H189v7.6h1.9c1 0 2.1-.3 2.9-1zm15.3 3.4l-1.2-2.7h-5.4l-1.2 2.7h-3.1l5.6-12.6h2.8l5.6 12.6h-3.1zm-3.9-8.8l-1.6 3.6h3.3l-1.7-3.6zm13.1-1.3V154h-2.9v-10.1h-3.7v-2.4h10.2v2.4h-3.6zm5.7-2.4h2.9v12.6H224v-12.6zm16.9 10.8c-1.3 1.2-3 1.9-4.8 1.9-.9 0-1.8-.1-2.6-.5-.8-.3-1.6-.8-2.2-1.4-1.2-1.2-1.9-2.9-1.9-4.6s.7-3.4 1.9-4.6c1.3-1.2 3-1.9 4.8-1.9.9 0 1.8.1 2.6.5.8.3 1.6.8 2.2 1.4 1.2 1.2 1.9 2.9 1.9 4.6s-.7 3.3-1.9 4.6zm-.9-4.6c0-1.1-.4-2.1-1.1-2.9-.3-.4-.8-.7-1.2-.9-.5-.2-1-.3-1.5-.3s-1 .1-1.5.3c-.5.2-.9.5-1.2.9-.4.4-.7.8-.8 1.3-.2.5-.3 1-.2 1.5 0 1.1.4 2.1 1.1 2.9.3.4.8.7 1.2.9.5.2 1 .3 1.5.3s1-.1 1.5-.3c.5-.2.9-.5 1.2-.9.6-.8 1-1.8 1-2.8zm14.3-6.2h2.9v12.6h-2.9l-6.1-7.9v7.9h-2.9v-12.6h2.7l6.4 8.1-.1-8.1zM17.1 127.8c1.2 0 2.4-.2 3.5-.8s2-1.3 2.8-2.2l3.4 3.4c-2.7 2.9-5.7 4.4-9.4 4.4-1.6.1-3.3-.2-4.8-.8s-2.9-1.4-4.1-2.5c-1.1-1.1-2-2.4-2.6-3.8-.6-1.4-.9-3-.8-4.5 0-1.6.2-3.1.9-4.6.6-1.5 1.5-2.8 2.7-3.9 1.2-1.1 2.7-2 4.3-2.6 1.6-.6 3.3-.8 5-.7 1.7.1 3.4.5 4.9 1.2s2.9 1.8 4 3l-3.2 3.6c-.7-.9-1.6-1.7-2.7-2.2s-2.2-.8-3.4-.8c-1.9 0-3.7.6-5 1.8-.7.6-1.3 1.4-1.6 2.3-.4.9-.5 1.8-.5 2.8 0 .9.1 1.9.4 2.8.3.9.9 1.7 1.5 2.4 1.3 1.1 2.9 1.7 4.7 1.7zm13.8 4.4v-22.8H36v18.3h10v4.5H30.9zm37.9-3.1c-2.4 2.2-5.5 3.4-8.7 3.4s-6.4-1.2-8.7-3.4c-1.2-1.1-2.1-2.4-2.7-3.8-.6-1.4-.9-3-.9-4.5 0-1.6.2-3.1.9-4.5.6-1.4 1.5-2.7 2.7-3.8 2.4-2.2 5.5-3.4 8.7-3.4s6.4 1.2 8.7 3.4c1.2 1.1 2.1 2.4 2.7 3.8.6 1.4.9 3 .9 4.5 0 1.6-.2 3.1-.9 4.5-.6 1.4-1.5 2.7-2.7 3.8zm-1.8-8.4c0-1.9-.7-3.8-2-5.2-.6-.7-1.4-1.2-2.2-1.6-.9-.4-1.8-.6-2.7-.6-.9 0-1.9.2-2.7.6-.9.4-1.6.9-2.2 1.6-1.3 1.4-2.1 3.3-2 5.2 0 1.9.7 3.8 2 5.2.6.7 1.4 1.2 2.2 1.6.9.4 1.8.6 2.7.6.9 0 1.9-.2 2.7-.6.9-.4 1.6-.9 2.2-1.6.7-.7 1.2-1.5 1.6-2.4.3-.9.4-1.8.4-2.8zm16 5.7c.4.5 1 .9 1.6 1.2s1.3.4 2 .4 1.3-.1 1.9-.4c.6-.3 1.1-.7 1.5-1.2.9-1.3 1.3-2.8 1.3-4.3v-12.6h5.2v12.7c0 3.3-.9 5.8-2.8 7.6-.9.9-2.1 1.6-3.3 2-1.2.5-2.5.7-3.9.6-1.3 0-2.6-.2-3.9-.6s-2.4-1.2-3.3-2c-1.9-1.8-2.8-4.3-2.8-7.6v-12.7h5.2v12.6c-.2 1.6.3 3.1 1.3 4.3zm36.7-13.9c2.2 2 3.4 4.8 3.4 8.3 0 3.5-1.1 6.4-3.2 8.4-2.1 2.1-5.5 3.1-9.9 3.1h-8.1v-22.8h8.3c4 0 7.3 1 9.5 3zm-3.8 13.5c1.3-1.2 1.9-2.9 1.9-5.1 0-2.2-.6-4-1.9-5.1-1.3-1.2-3.2-1.8-5.9-1.8h-2.9v13.9h3.3c2 0 3.9-.6 5.5-1.9zm36.8-16.5h5.2v22.8h-5.2L141.5 118v14.3h-5.2v-22.8h4.9l11.5 14.6v-14.6zm27.6 22.7l-2.2-4.9h-9.8l-2.2 4.9h-5.6l10.1-22.8h5l10.1 22.8h-5.4zm-7-15.9l-2.9 6.6h5.8l-2.9-6.6zm23.5-2.4v18.4h-5.2v-18.4H185v-4.4h18.5v4.4h-6.7zm10.3-4.4h5.2v22.8h-5.2v-22.8zm19.6 14.4l6-14.5h5.7l-9.4 22.8h-4.4l-9.4-22.8h5.7l5.8 14.5zm31.2-14.4v4.5h-11.6v4.7h10.5v4.4h-10.5v4.8h12v4.6h-17.2v-22.8l16.8-.2z"/><path fill="#0086ff" d="M98.7 58.9H87.3v27h26.9V74.2H98.7V58.9zm57.8.1v15.2h-15.4v11.6H168v-27h-11.6l.1.2zM87.3 32h11.6l-.1-.1V16.7h15.4V5.1H87.3V32zm53.8-26.9v11.6h15.4V32H168V5c0 .1-26.9.1-26.9.1z"/><path fill="#93eaff" d="M139.6 32l-15.4-15.4h16.9V5.1h-27v11.6L129.5 32h10.1zm-13.9 26.9h-10.1l12.7 12.7 2.5 2.6H114v11.6h27V74.1l-7.7-7.6-7.6-7.6zM156.5 32v16.8l-2.7-2.6-12.7-12.7v10.2l7.6 7.6 7.7 7.7H168V32h-11.5zm-42.4 15.3L98.9 32H87.3v26.8h11.5V42.1l15.4 15.4V47.3z"/></svg>